<mxfile host="app.diagrams.net" agent="Mozilla/5.0 (Windows NT 10.0; Win64; x64) AppleWebKit/537.36 (KHTML, like Gecko) Chrome/131.0.0.0 Safari/537.36" version="25.0.3">
  <diagram name="PÃ¡gina-1" id="TDb5UpPBG_1uy_1eAnth">
    <mxGraphModel dx="880" dy="468" grid="1" gridSize="10" guides="1" tooltips="1" connect="1" arrows="1" fold="1" page="1" pageScale="1" pageWidth="827" pageHeight="1169" math="0" shadow="0">
      <root>
        <mxCell id="0" />
        <mxCell id="1" parent="0" />
        <mxCell id="IVkHDWazPN6k4As9Pz_p-1" value="INICIO" style="ellipse;whiteSpace=wrap;html=1;" vertex="1" parent="1">
          <mxGeometry x="340" y="80" width="120" height="80" as="geometry" />
        </mxCell>
        <mxCell id="IVkHDWazPN6k4As9Pz_p-2" value="" style="endArrow=none;html=1;rounded=0;entryX=0.5;entryY=1;entryDx=0;entryDy=0;" edge="1" parent="1" target="IVkHDWazPN6k4As9Pz_p-1">
          <mxGeometry width="50" height="50" relative="1" as="geometry">
            <mxPoint x="400" y="200" as="sourcePoint" />
            <mxPoint x="440" y="220" as="targetPoint" />
          </mxGeometry>
        </mxCell>
        <mxCell id="IVkHDWazPN6k4As9Pz_p-3" value="fecha y contador" style="shape=parallelogram;perimeter=parallelogramPerimeter;whiteSpace=wrap;html=1;fixedSize=1;" vertex="1" parent="1">
          <mxGeometry x="340" y="190" width="120" height="60" as="geometry" />
        </mxCell>
        <mxCell id="IVkHDWazPN6k4As9Pz_p-4" value="" style="endArrow=classic;html=1;rounded=0;exitX=0.5;exitY=1;exitDx=0;exitDy=0;" edge="1" parent="1" source="IVkHDWazPN6k4As9Pz_p-3">
          <mxGeometry width="50" height="50" relative="1" as="geometry">
            <mxPoint x="390" y="270" as="sourcePoint" />
            <mxPoint x="400" y="290" as="targetPoint" />
          </mxGeometry>
        </mxCell>
        <mxCell id="IVkHDWazPN6k4As9Pz_p-5" value="auxiliar" style="rounded=0;whiteSpace=wrap;html=1;" vertex="1" parent="1">
          <mxGeometry x="340" y="290" width="120" height="60" as="geometry" />
        </mxCell>
        <mxCell id="IVkHDWazPN6k4As9Pz_p-6" value="" style="endArrow=classic;html=1;rounded=0;exitX=0.5;exitY=1;exitDx=0;exitDy=0;" edge="1" parent="1">
          <mxGeometry width="50" height="50" relative="1" as="geometry">
            <mxPoint x="399.5" y="350" as="sourcePoint" />
            <mxPoint x="399.5" y="390" as="targetPoint" />
          </mxGeometry>
        </mxCell>
        <mxCell id="IVkHDWazPN6k4As9Pz_p-7" value="mover i en fecha" style="rounded=0;whiteSpace=wrap;html=1;" vertex="1" parent="1">
          <mxGeometry x="340" y="390" width="120" height="60" as="geometry" />
        </mxCell>
        <mxCell id="IVkHDWazPN6k4As9Pz_p-8" value="" style="endArrow=classic;html=1;rounded=0;exitX=0.5;exitY=1;exitDx=0;exitDy=0;entryX=0.5;entryY=0;entryDx=0;entryDy=0;" edge="1" parent="1" target="IVkHDWazPN6k4As9Pz_p-9">
          <mxGeometry width="50" height="50" relative="1" as="geometry">
            <mxPoint x="399.5" y="450" as="sourcePoint" />
            <mxPoint x="399.5" y="490" as="targetPoint" />
          </mxGeometry>
        </mxCell>
        <mxCell id="IVkHDWazPN6k4As9Pz_p-9" value="i == &quot;-&quot;" style="rhombus;whiteSpace=wrap;html=1;" vertex="1" parent="1">
          <mxGeometry x="325" y="480" width="150" height="80" as="geometry" />
        </mxCell>
        <mxCell id="IVkHDWazPN6k4As9Pz_p-10" value="" style="endArrow=classic;html=1;rounded=0;exitX=1;exitY=0.5;exitDx=0;exitDy=0;" edge="1" parent="1" source="IVkHDWazPN6k4As9Pz_p-9">
          <mxGeometry width="50" height="50" relative="1" as="geometry">
            <mxPoint x="420" y="450" as="sourcePoint" />
            <mxPoint x="560" y="520" as="targetPoint" />
          </mxGeometry>
        </mxCell>
        <mxCell id="IVkHDWazPN6k4As9Pz_p-11" value="auxiliar += &quot;??&quot;" style="rounded=0;whiteSpace=wrap;html=1;" vertex="1" parent="1">
          <mxGeometry x="560" y="490" width="120" height="60" as="geometry" />
        </mxCell>
        <mxCell id="IVkHDWazPN6k4As9Pz_p-12" value="" style="endArrow=none;html=1;rounded=0;exitX=1;exitY=0.5;exitDx=0;exitDy=0;" edge="1" parent="1" source="IVkHDWazPN6k4As9Pz_p-11">
          <mxGeometry width="50" height="50" relative="1" as="geometry">
            <mxPoint x="420" y="450" as="sourcePoint" />
            <mxPoint x="760" y="520" as="targetPoint" />
          </mxGeometry>
        </mxCell>
        <mxCell id="IVkHDWazPN6k4As9Pz_p-13" value="" style="endArrow=none;html=1;rounded=0;" edge="1" parent="1">
          <mxGeometry width="50" height="50" relative="1" as="geometry">
            <mxPoint x="760" y="420" as="sourcePoint" />
            <mxPoint x="760" y="520" as="targetPoint" />
          </mxGeometry>
        </mxCell>
        <mxCell id="IVkHDWazPN6k4As9Pz_p-14" value="" style="endArrow=classic;html=1;rounded=0;entryX=1;entryY=0.5;entryDx=0;entryDy=0;" edge="1" parent="1" target="IVkHDWazPN6k4As9Pz_p-7">
          <mxGeometry width="50" height="50" relative="1" as="geometry">
            <mxPoint x="760" y="420" as="sourcePoint" />
            <mxPoint x="470" y="400" as="targetPoint" />
          </mxGeometry>
        </mxCell>
        <mxCell id="IVkHDWazPN6k4As9Pz_p-15" value="" style="endArrow=classic;html=1;rounded=0;exitX=0.5;exitY=1;exitDx=0;exitDy=0;" edge="1" parent="1" source="IVkHDWazPN6k4As9Pz_p-9">
          <mxGeometry width="50" height="50" relative="1" as="geometry">
            <mxPoint x="420" y="570" as="sourcePoint" />
            <mxPoint x="400" y="600" as="targetPoint" />
          </mxGeometry>
        </mxCell>
        <mxCell id="IVkHDWazPN6k4As9Pz_p-16" value="i == &quot; &quot;" style="rhombus;whiteSpace=wrap;html=1;" vertex="1" parent="1">
          <mxGeometry x="325" y="600" width="150" height="80" as="geometry" />
        </mxCell>
        <mxCell id="IVkHDWazPN6k4As9Pz_p-17" value="" style="endArrow=classic;html=1;rounded=0;exitX=0.5;exitY=1;exitDx=0;exitDy=0;" edge="1" parent="1">
          <mxGeometry width="50" height="50" relative="1" as="geometry">
            <mxPoint x="400" y="680" as="sourcePoint" />
            <mxPoint x="400" y="720" as="targetPoint" />
          </mxGeometry>
        </mxCell>
        <mxCell id="IVkHDWazPN6k4As9Pz_p-18" value="else" style="rhombus;whiteSpace=wrap;html=1;" vertex="1" parent="1">
          <mxGeometry x="325" y="720" width="150" height="80" as="geometry" />
        </mxCell>
        <mxCell id="IVkHDWazPN6k4As9Pz_p-19" value="" style="endArrow=none;html=1;rounded=0;exitX=1;exitY=0.5;exitDx=0;exitDy=0;" edge="1" parent="1" source="IVkHDWazPN6k4As9Pz_p-18">
          <mxGeometry width="50" height="50" relative="1" as="geometry">
            <mxPoint x="420" y="630" as="sourcePoint" />
            <mxPoint x="560" y="760" as="targetPoint" />
          </mxGeometry>
        </mxCell>
        <mxCell id="IVkHDWazPN6k4As9Pz_p-20" value="auxiliar += i" style="rounded=0;whiteSpace=wrap;html=1;" vertex="1" parent="1">
          <mxGeometry x="560" y="730" width="120" height="60" as="geometry" />
        </mxCell>
        <mxCell id="IVkHDWazPN6k4As9Pz_p-21" value="" style="endArrow=none;html=1;rounded=0;" edge="1" parent="1">
          <mxGeometry width="50" height="50" relative="1" as="geometry">
            <mxPoint x="680" y="760" as="sourcePoint" />
            <mxPoint x="760" y="760" as="targetPoint" />
          </mxGeometry>
        </mxCell>
        <mxCell id="IVkHDWazPN6k4As9Pz_p-22" value="" style="endArrow=none;html=1;rounded=0;" edge="1" parent="1">
          <mxGeometry width="50" height="50" relative="1" as="geometry">
            <mxPoint x="760" y="760" as="sourcePoint" />
            <mxPoint x="760" y="520" as="targetPoint" />
          </mxGeometry>
        </mxCell>
        <mxCell id="IVkHDWazPN6k4As9Pz_p-23" value="" style="endArrow=none;html=1;rounded=0;exitX=0;exitY=0.5;exitDx=0;exitDy=0;" edge="1" parent="1" source="IVkHDWazPN6k4As9Pz_p-16">
          <mxGeometry width="50" height="50" relative="1" as="geometry">
            <mxPoint x="420" y="630" as="sourcePoint" />
            <mxPoint x="240" y="640" as="targetPoint" />
          </mxGeometry>
        </mxCell>
        <mxCell id="IVkHDWazPN6k4As9Pz_p-24" value="" style="endArrow=none;html=1;rounded=0;" edge="1" parent="1">
          <mxGeometry width="50" height="50" relative="1" as="geometry">
            <mxPoint x="240" y="840" as="sourcePoint" />
            <mxPoint x="240" y="640" as="targetPoint" />
          </mxGeometry>
        </mxCell>
        <mxCell id="IVkHDWazPN6k4As9Pz_p-25" value="" style="endArrow=none;html=1;rounded=0;" edge="1" parent="1">
          <mxGeometry width="50" height="50" relative="1" as="geometry">
            <mxPoint x="240" y="840" as="sourcePoint" />
            <mxPoint x="400" y="840" as="targetPoint" />
          </mxGeometry>
        </mxCell>
        <mxCell id="IVkHDWazPN6k4As9Pz_p-26" value="" style="endArrow=classic;html=1;rounded=0;" edge="1" parent="1">
          <mxGeometry width="50" height="50" relative="1" as="geometry">
            <mxPoint x="400" y="840" as="sourcePoint" />
            <mxPoint x="400" y="920" as="targetPoint" />
          </mxGeometry>
        </mxCell>
        <mxCell id="IVkHDWazPN6k4As9Pz_p-27" value="formato =&amp;nbsp;&lt;div&gt;&quot;AAAA??MM??DD&quot;&lt;/div&gt;" style="rounded=0;whiteSpace=wrap;html=1;" vertex="1" parent="1">
          <mxGeometry x="340" y="920" width="120" height="60" as="geometry" />
        </mxCell>
        <mxCell id="IVkHDWazPN6k4As9Pz_p-28" value="" style="endArrow=classic;html=1;rounded=0;exitX=0.5;exitY=1;exitDx=0;exitDy=0;" edge="1" parent="1" source="IVkHDWazPN6k4As9Pz_p-27">
          <mxGeometry width="50" height="50" relative="1" as="geometry">
            <mxPoint x="420" y="930" as="sourcePoint" />
            <mxPoint x="400" y="1040" as="targetPoint" />
          </mxGeometry>
        </mxCell>
        <mxCell id="IVkHDWazPN6k4As9Pz_p-29" value="contador = 0" style="rhombus;whiteSpace=wrap;html=1;" vertex="1" parent="1">
          <mxGeometry x="320" y="1040" width="155" height="80" as="geometry" />
        </mxCell>
        <mxCell id="IVkHDWazPN6k4As9Pz_p-30" value="" style="endArrow=classic;html=1;rounded=0;exitX=1;exitY=0.5;exitDx=0;exitDy=0;" edge="1" parent="1" source="IVkHDWazPN6k4As9Pz_p-29">
          <mxGeometry width="50" height="50" relative="1" as="geometry">
            <mxPoint x="420" y="1000" as="sourcePoint" />
            <mxPoint x="560" y="1080" as="targetPoint" />
          </mxGeometry>
        </mxCell>
        <mxCell id="IVkHDWazPN6k4As9Pz_p-31" value="Explicar formato y si&lt;div&gt;&amp;nbsp;desea mantenerlo o no&lt;/div&gt;" style="shape=parallelogram;perimeter=parallelogramPerimeter;whiteSpace=wrap;html=1;fixedSize=1;" vertex="1" parent="1">
          <mxGeometry x="550" y="1050" width="170" height="60" as="geometry" />
        </mxCell>
        <mxCell id="IVkHDWazPN6k4As9Pz_p-32" value="" style="endArrow=none;html=1;rounded=0;exitX=1;exitY=0.5;exitDx=0;exitDy=0;" edge="1" parent="1" source="IVkHDWazPN6k4As9Pz_p-31">
          <mxGeometry width="50" height="50" relative="1" as="geometry">
            <mxPoint x="420" y="1190" as="sourcePoint" />
            <mxPoint x="760" y="1080" as="targetPoint" />
          </mxGeometry>
        </mxCell>
        <mxCell id="IVkHDWazPN6k4As9Pz_p-33" value="" style="endArrow=none;html=1;rounded=0;entryX=0;entryY=0.5;entryDx=0;entryDy=0;" edge="1" parent="1" target="IVkHDWazPN6k4As9Pz_p-29">
          <mxGeometry width="50" height="50" relative="1" as="geometry">
            <mxPoint x="200" y="1080" as="sourcePoint" />
            <mxPoint x="320" y="1080" as="targetPoint" />
          </mxGeometry>
        </mxCell>
        <mxCell id="IVkHDWazPN6k4As9Pz_p-34" value="" style="endArrow=none;html=1;rounded=0;" edge="1" parent="1">
          <mxGeometry width="50" height="50" relative="1" as="geometry">
            <mxPoint x="200" y="1200" as="sourcePoint" />
            <mxPoint x="200" y="1080" as="targetPoint" />
          </mxGeometry>
        </mxCell>
        <mxCell id="IVkHDWazPN6k4As9Pz_p-35" value="" style="endArrow=classic;html=1;rounded=0;entryX=0;entryY=0.5;entryDx=0;entryDy=0;" edge="1" parent="1" target="IVkHDWazPN6k4As9Pz_p-36">
          <mxGeometry width="50" height="50" relative="1" as="geometry">
            <mxPoint x="200" y="1200" as="sourcePoint" />
            <mxPoint x="320" y="1200" as="targetPoint" />
          </mxGeometry>
        </mxCell>
        <mxCell id="IVkHDWazPN6k4As9Pz_p-36" value="Ingresa o&lt;div&gt;mantiene formato&lt;/div&gt;" style="shape=parallelogram;perimeter=parallelogramPerimeter;whiteSpace=wrap;html=1;fixedSize=1;" vertex="1" parent="1">
          <mxGeometry x="340" y="1169" width="120" height="60" as="geometry" />
        </mxCell>
        <mxCell id="IVkHDWazPN6k4As9Pz_p-37" value="" style="endArrow=none;html=1;rounded=0;" edge="1" parent="1">
          <mxGeometry width="50" height="50" relative="1" as="geometry">
            <mxPoint x="760" y="1200" as="sourcePoint" />
            <mxPoint x="760" y="1080" as="targetPoint" />
          </mxGeometry>
        </mxCell>
        <mxCell id="IVkHDWazPN6k4As9Pz_p-38" value="" style="endArrow=classic;html=1;rounded=0;entryX=1;entryY=0.5;entryDx=0;entryDy=0;" edge="1" parent="1" target="IVkHDWazPN6k4As9Pz_p-36">
          <mxGeometry width="50" height="50" relative="1" as="geometry">
            <mxPoint x="760" y="1200" as="sourcePoint" />
            <mxPoint x="360" y="1209" as="targetPoint" />
          </mxGeometry>
        </mxCell>
        <mxCell id="IVkHDWazPN6k4As9Pz_p-39" value="SI" style="text;html=1;align=center;verticalAlign=middle;whiteSpace=wrap;rounded=0;" vertex="1" parent="1">
          <mxGeometry x="475" y="1060" width="60" height="30" as="geometry" />
        </mxCell>
        <mxCell id="IVkHDWazPN6k4As9Pz_p-40" value="NO" style="text;html=1;align=center;verticalAlign=middle;whiteSpace=wrap;rounded=0;" vertex="1" parent="1">
          <mxGeometry x="240" y="1060" width="60" height="30" as="geometry" />
        </mxCell>
        <mxCell id="IVkHDWazPN6k4As9Pz_p-41" value="SI" style="text;html=1;align=center;verticalAlign=middle;whiteSpace=wrap;rounded=0;" vertex="1" parent="1">
          <mxGeometry x="490" y="500" width="60" height="30" as="geometry" />
        </mxCell>
        <mxCell id="IVkHDWazPN6k4As9Pz_p-42" value="SI" style="text;html=1;align=center;verticalAlign=middle;whiteSpace=wrap;rounded=0;" vertex="1" parent="1">
          <mxGeometry x="260" y="620" width="60" height="30" as="geometry" />
        </mxCell>
        <mxCell id="IVkHDWazPN6k4As9Pz_p-43" value="" style="endArrow=classic;html=1;rounded=0;exitX=0.5;exitY=1;exitDx=0;exitDy=0;" edge="1" parent="1" source="IVkHDWazPN6k4As9Pz_p-36">
          <mxGeometry width="50" height="50" relative="1" as="geometry">
            <mxPoint x="420" y="1390" as="sourcePoint" />
            <mxPoint x="400" y="1280" as="targetPoint" />
          </mxGeometry>
        </mxCell>
        <mxCell id="IVkHDWazPN6k4As9Pz_p-44" value="Declarar&lt;div&gt;variables&lt;/div&gt;&lt;div&gt;auxiliares&lt;/div&gt;" style="rounded=0;whiteSpace=wrap;html=1;" vertex="1" parent="1">
          <mxGeometry x="340" y="1280" width="120" height="60" as="geometry" />
        </mxCell>
        <mxCell id="IVkHDWazPN6k4As9Pz_p-45" value="" style="endArrow=classic;html=1;rounded=0;exitX=0.5;exitY=1;exitDx=0;exitDy=0;" edge="1" parent="1" source="IVkHDWazPN6k4As9Pz_p-44">
          <mxGeometry width="50" height="50" relative="1" as="geometry">
            <mxPoint x="420" y="1410" as="sourcePoint" />
            <mxPoint x="400" y="1400" as="targetPoint" />
          </mxGeometry>
        </mxCell>
        <mxCell id="IVkHDWazPN6k4As9Pz_p-46" value="mantiene&lt;div&gt;formato&lt;/div&gt;" style="rhombus;whiteSpace=wrap;html=1;" vertex="1" parent="1">
          <mxGeometry x="322.5" y="1400" width="155" height="80" as="geometry" />
        </mxCell>
        <mxCell id="IVkHDWazPN6k4As9Pz_p-47" value="" style="endArrow=none;html=1;rounded=0;exitX=0.5;exitY=1;exitDx=0;exitDy=0;" edge="1" parent="1" source="IVkHDWazPN6k4As9Pz_p-46">
          <mxGeometry width="50" height="50" relative="1" as="geometry">
            <mxPoint x="400" y="1460" as="sourcePoint" />
            <mxPoint x="400" y="1520" as="targetPoint" />
          </mxGeometry>
        </mxCell>
        <mxCell id="IVkHDWazPN6k4As9Pz_p-48" value="Recorre nuevo&lt;div&gt;formato&lt;/div&gt;" style="rounded=0;whiteSpace=wrap;html=1;" vertex="1" parent="1">
          <mxGeometry x="340" y="1510" width="120" height="60" as="geometry" />
        </mxCell>
        <mxCell id="IVkHDWazPN6k4As9Pz_p-49" value="" style="endArrow=none;html=1;rounded=0;exitX=0.5;exitY=1;exitDx=0;exitDy=0;" edge="1" parent="1" source="IVkHDWazPN6k4As9Pz_p-48">
          <mxGeometry width="50" height="50" relative="1" as="geometry">
            <mxPoint x="400" y="1540" as="sourcePoint" />
            <mxPoint x="400" y="1600" as="targetPoint" />
          </mxGeometry>
        </mxCell>
        <mxCell id="IVkHDWazPN6k4As9Pz_p-50" value="elemento de nuevo&lt;div&gt;formato es == A&lt;/div&gt;" style="rhombus;whiteSpace=wrap;html=1;" vertex="1" parent="1">
          <mxGeometry x="322.5" y="1600" width="155" height="80" as="geometry" />
        </mxCell>
        <mxCell id="IVkHDWazPN6k4As9Pz_p-51" value="" style="endArrow=classic;html=1;rounded=0;entryX=0;entryY=0.5;entryDx=0;entryDy=0;" edge="1" parent="1" target="IVkHDWazPN6k4As9Pz_p-52">
          <mxGeometry width="50" height="50" relative="1" as="geometry">
            <mxPoint x="480" y="1639" as="sourcePoint" />
            <mxPoint x="560" y="1639.44" as="targetPoint" />
          </mxGeometry>
        </mxCell>
        <mxCell id="IVkHDWazPN6k4As9Pz_p-52" value="Verifica que no&lt;div&gt;supere el formato&lt;/div&gt;&lt;div&gt;original&lt;/div&gt;" style="rhombus;whiteSpace=wrap;html=1;" vertex="1" parent="1">
          <mxGeometry x="557.5" y="1600" width="155" height="80" as="geometry" />
        </mxCell>
        <mxCell id="IVkHDWazPN6k4As9Pz_p-53" value="" style="endArrow=classic;html=1;rounded=0;exitX=1;exitY=0.5;exitDx=0;exitDy=0;entryX=0;entryY=0.5;entryDx=0;entryDy=0;" edge="1" parent="1" source="IVkHDWazPN6k4As9Pz_p-52" target="IVkHDWazPN6k4As9Pz_p-54">
          <mxGeometry width="50" height="50" relative="1" as="geometry">
            <mxPoint x="700" y="1540" as="sourcePoint" />
            <mxPoint x="760" y="1640" as="targetPoint" />
          </mxGeometry>
        </mxCell>
        <mxCell id="IVkHDWazPN6k4As9Pz_p-54" value="Fecha se adapta&lt;div&gt;al nuevo formato&lt;/div&gt;" style="rounded=0;whiteSpace=wrap;html=1;" vertex="1" parent="1">
          <mxGeometry x="760" y="1610" width="120" height="60" as="geometry" />
        </mxCell>
        <mxCell id="IVkHDWazPN6k4As9Pz_p-55" value="No" style="text;html=1;align=center;verticalAlign=middle;whiteSpace=wrap;rounded=0;" vertex="1" parent="1">
          <mxGeometry x="700" y="1600" width="60" height="30" as="geometry" />
        </mxCell>
        <mxCell id="IVkHDWazPN6k4As9Pz_p-56" value="" style="endArrow=none;html=1;rounded=0;entryX=0.5;entryY=1;entryDx=0;entryDy=0;" edge="1" parent="1" target="IVkHDWazPN6k4As9Pz_p-52">
          <mxGeometry width="50" height="50" relative="1" as="geometry">
            <mxPoint x="635" y="1720" as="sourcePoint" />
            <mxPoint x="760" y="1610" as="targetPoint" />
          </mxGeometry>
        </mxCell>
        <mxCell id="IVkHDWazPN6k4As9Pz_p-57" value="" style="endArrow=classic;html=1;rounded=0;exitX=0.5;exitY=1;exitDx=0;exitDy=0;" edge="1" parent="1" source="IVkHDWazPN6k4As9Pz_p-50">
          <mxGeometry width="50" height="50" relative="1" as="geometry">
            <mxPoint x="390" y="1660" as="sourcePoint" />
            <mxPoint x="400" y="1760" as="targetPoint" />
          </mxGeometry>
        </mxCell>
        <mxCell id="IVkHDWazPN6k4As9Pz_p-58" value="elemento de nuevo&lt;div&gt;formato es == ?&lt;/div&gt;" style="rhombus;whiteSpace=wrap;html=1;" vertex="1" parent="1">
          <mxGeometry x="325" y="1760" width="155" height="80" as="geometry" />
        </mxCell>
        <mxCell id="IVkHDWazPN6k4As9Pz_p-59" value="" style="endArrow=classic;html=1;rounded=0;entryX=0;entryY=0.5;entryDx=0;entryDy=0;" edge="1" parent="1" target="IVkHDWazPN6k4As9Pz_p-60">
          <mxGeometry width="50" height="50" relative="1" as="geometry">
            <mxPoint x="482.5" y="1799" as="sourcePoint" />
            <mxPoint x="562.5" y="1799.44" as="targetPoint" />
          </mxGeometry>
        </mxCell>
        <mxCell id="IVkHDWazPN6k4As9Pz_p-60" value="Verifica que no&lt;div&gt;supere el formato&lt;/div&gt;&lt;div&gt;original&lt;/div&gt;" style="rhombus;whiteSpace=wrap;html=1;" vertex="1" parent="1">
          <mxGeometry x="560" y="1760" width="155" height="80" as="geometry" />
        </mxCell>
        <mxCell id="IVkHDWazPN6k4As9Pz_p-61" value="" style="endArrow=classic;html=1;rounded=0;exitX=1;exitY=0.5;exitDx=0;exitDy=0;" edge="1" parent="1" source="IVkHDWazPN6k4As9Pz_p-60">
          <mxGeometry width="50" height="50" relative="1" as="geometry">
            <mxPoint x="702.5" y="1700" as="sourcePoint" />
            <mxPoint x="830" y="1800" as="targetPoint" />
          </mxGeometry>
        </mxCell>
        <mxCell id="IVkHDWazPN6k4As9Pz_p-62" value="No" style="text;html=1;align=center;verticalAlign=middle;whiteSpace=wrap;rounded=0;" vertex="1" parent="1">
          <mxGeometry x="702.5" y="1760" width="60" height="30" as="geometry" />
        </mxCell>
        <mxCell id="IVkHDWazPN6k4As9Pz_p-63" value="" style="endArrow=none;html=1;rounded=0;entryX=0.5;entryY=1;entryDx=0;entryDy=0;" edge="1" parent="1" target="IVkHDWazPN6k4As9Pz_p-60">
          <mxGeometry width="50" height="50" relative="1" as="geometry">
            <mxPoint x="637.5" y="1880" as="sourcePoint" />
            <mxPoint x="762.5" y="1770" as="targetPoint" />
          </mxGeometry>
        </mxCell>
        <mxCell id="IVkHDWazPN6k4As9Pz_p-64" value="" style="endArrow=classic;html=1;rounded=0;exitX=0.5;exitY=1;exitDx=0;exitDy=0;" edge="1" parent="1" source="IVkHDWazPN6k4As9Pz_p-58">
          <mxGeometry width="50" height="50" relative="1" as="geometry">
            <mxPoint x="392.5" y="1820" as="sourcePoint" />
            <mxPoint x="402.5" y="1920" as="targetPoint" />
          </mxGeometry>
        </mxCell>
        <mxCell id="IVkHDWazPN6k4As9Pz_p-65" value="elemento de nuevo&lt;div&gt;formato es == M&lt;/div&gt;" style="rhombus;whiteSpace=wrap;html=1;" vertex="1" parent="1">
          <mxGeometry x="330" y="1920" width="155" height="80" as="geometry" />
        </mxCell>
        <mxCell id="IVkHDWazPN6k4As9Pz_p-66" value="" style="endArrow=classic;html=1;rounded=0;entryX=0;entryY=0.5;entryDx=0;entryDy=0;" edge="1" parent="1" target="IVkHDWazPN6k4As9Pz_p-67">
          <mxGeometry width="50" height="50" relative="1" as="geometry">
            <mxPoint x="487.5" y="1959" as="sourcePoint" />
            <mxPoint x="567.5" y="1959.44" as="targetPoint" />
          </mxGeometry>
        </mxCell>
        <mxCell id="IVkHDWazPN6k4As9Pz_p-67" value="Verifica que no&lt;div&gt;supere el formato&lt;/div&gt;&lt;div&gt;original&lt;/div&gt;" style="rhombus;whiteSpace=wrap;html=1;" vertex="1" parent="1">
          <mxGeometry x="565" y="1920" width="155" height="80" as="geometry" />
        </mxCell>
        <mxCell id="IVkHDWazPN6k4As9Pz_p-68" value="" style="endArrow=classic;html=1;rounded=0;exitX=1;exitY=0.5;exitDx=0;exitDy=0;" edge="1" parent="1" source="IVkHDWazPN6k4As9Pz_p-67">
          <mxGeometry width="50" height="50" relative="1" as="geometry">
            <mxPoint x="707.5" y="1860" as="sourcePoint" />
            <mxPoint x="830" y="1960" as="targetPoint" />
          </mxGeometry>
        </mxCell>
        <mxCell id="IVkHDWazPN6k4As9Pz_p-69" value="No" style="text;html=1;align=center;verticalAlign=middle;whiteSpace=wrap;rounded=0;" vertex="1" parent="1">
          <mxGeometry x="707.5" y="1920" width="60" height="30" as="geometry" />
        </mxCell>
        <mxCell id="IVkHDWazPN6k4As9Pz_p-70" value="" style="endArrow=none;html=1;rounded=0;entryX=0.5;entryY=1;entryDx=0;entryDy=0;" edge="1" parent="1" target="IVkHDWazPN6k4As9Pz_p-67">
          <mxGeometry width="50" height="50" relative="1" as="geometry">
            <mxPoint x="642.5" y="2040" as="sourcePoint" />
            <mxPoint x="767.5" y="1930" as="targetPoint" />
          </mxGeometry>
        </mxCell>
        <mxCell id="IVkHDWazPN6k4As9Pz_p-71" value="" style="endArrow=classic;html=1;rounded=0;exitX=0.5;exitY=1;exitDx=0;exitDy=0;" edge="1" parent="1" source="IVkHDWazPN6k4As9Pz_p-65">
          <mxGeometry width="50" height="50" relative="1" as="geometry">
            <mxPoint x="397.5" y="1980" as="sourcePoint" />
            <mxPoint x="407.5" y="2080" as="targetPoint" />
          </mxGeometry>
        </mxCell>
        <mxCell id="IVkHDWazPN6k4As9Pz_p-72" value="elemento de nuevo&lt;div&gt;formato es == D&lt;/div&gt;" style="rhombus;whiteSpace=wrap;html=1;" vertex="1" parent="1">
          <mxGeometry x="330" y="2080" width="155" height="80" as="geometry" />
        </mxCell>
        <mxCell id="IVkHDWazPN6k4As9Pz_p-73" value="" style="endArrow=classic;html=1;rounded=0;entryX=0;entryY=0.5;entryDx=0;entryDy=0;" edge="1" parent="1" target="IVkHDWazPN6k4As9Pz_p-74">
          <mxGeometry width="50" height="50" relative="1" as="geometry">
            <mxPoint x="487.5" y="2119" as="sourcePoint" />
            <mxPoint x="567.5" y="2119.44" as="targetPoint" />
          </mxGeometry>
        </mxCell>
        <mxCell id="IVkHDWazPN6k4As9Pz_p-74" value="Verifica que no&lt;div&gt;supere el formato&lt;/div&gt;&lt;div&gt;original&lt;/div&gt;" style="rhombus;whiteSpace=wrap;html=1;" vertex="1" parent="1">
          <mxGeometry x="565" y="2080" width="155" height="80" as="geometry" />
        </mxCell>
        <mxCell id="IVkHDWazPN6k4As9Pz_p-75" value="" style="endArrow=classic;html=1;rounded=0;exitX=1;exitY=0.5;exitDx=0;exitDy=0;" edge="1" parent="1" source="IVkHDWazPN6k4As9Pz_p-74">
          <mxGeometry width="50" height="50" relative="1" as="geometry">
            <mxPoint x="707.5" y="2020" as="sourcePoint" />
            <mxPoint x="830" y="2120" as="targetPoint" />
          </mxGeometry>
        </mxCell>
        <mxCell id="IVkHDWazPN6k4As9Pz_p-76" value="No" style="text;html=1;align=center;verticalAlign=middle;whiteSpace=wrap;rounded=0;" vertex="1" parent="1">
          <mxGeometry x="707.5" y="2080" width="60" height="30" as="geometry" />
        </mxCell>
        <mxCell id="IVkHDWazPN6k4As9Pz_p-77" value="" style="endArrow=none;html=1;rounded=0;entryX=0.5;entryY=1;entryDx=0;entryDy=0;" edge="1" parent="1" target="IVkHDWazPN6k4As9Pz_p-74">
          <mxGeometry width="50" height="50" relative="1" as="geometry">
            <mxPoint x="642.5" y="2200" as="sourcePoint" />
            <mxPoint x="767.5" y="2090" as="targetPoint" />
          </mxGeometry>
        </mxCell>
        <mxCell id="IVkHDWazPN6k4As9Pz_p-78" value="" style="endArrow=classic;html=1;rounded=0;exitX=0.5;exitY=1;exitDx=0;exitDy=0;" edge="1" parent="1" source="IVkHDWazPN6k4As9Pz_p-72">
          <mxGeometry width="50" height="50" relative="1" as="geometry">
            <mxPoint x="397.5" y="2140" as="sourcePoint" />
            <mxPoint x="407.5" y="2240" as="targetPoint" />
          </mxGeometry>
        </mxCell>
        <mxCell id="IVkHDWazPN6k4As9Pz_p-79" value="" style="endArrow=classic;html=1;rounded=0;" edge="1" parent="1">
          <mxGeometry width="50" height="50" relative="1" as="geometry">
            <mxPoint x="830" y="2120" as="sourcePoint" />
            <mxPoint x="830" y="1670" as="targetPoint" />
          </mxGeometry>
        </mxCell>
        <mxCell id="IVkHDWazPN6k4As9Pz_p-80" value="" style="endArrow=classic;html=1;rounded=0;exitX=0.581;exitY=0.003;exitDx=0;exitDy=0;exitPerimeter=0;" edge="1" parent="1" source="IVkHDWazPN6k4As9Pz_p-54">
          <mxGeometry width="50" height="50" relative="1" as="geometry">
            <mxPoint x="610" y="1580" as="sourcePoint" />
            <mxPoint x="830" y="1540" as="targetPoint" />
          </mxGeometry>
        </mxCell>
        <mxCell id="IVkHDWazPN6k4As9Pz_p-81" value="" style="endArrow=classic;html=1;rounded=0;entryX=1;entryY=0.5;entryDx=0;entryDy=0;" edge="1" parent="1" target="IVkHDWazPN6k4As9Pz_p-48">
          <mxGeometry width="50" height="50" relative="1" as="geometry">
            <mxPoint x="830" y="1540" as="sourcePoint" />
            <mxPoint x="660" y="1530" as="targetPoint" />
          </mxGeometry>
        </mxCell>
        <mxCell id="IVkHDWazPN6k4As9Pz_p-82" value="Hasta acabar de recorre el nuevo formato" style="text;html=1;align=center;verticalAlign=middle;whiteSpace=wrap;rounded=0;" vertex="1" parent="1">
          <mxGeometry x="590" y="1510" width="180" height="30" as="geometry" />
        </mxCell>
        <mxCell id="IVkHDWazPN6k4As9Pz_p-83" value="SI" style="text;html=1;align=center;verticalAlign=middle;whiteSpace=wrap;rounded=0;" vertex="1" parent="1">
          <mxGeometry x="650" y="1680" width="60" height="30" as="geometry" />
        </mxCell>
        <mxCell id="IVkHDWazPN6k4As9Pz_p-84" value="" style="endArrow=none;html=1;rounded=0;" edge="1" parent="1">
          <mxGeometry width="50" height="50" relative="1" as="geometry">
            <mxPoint x="630" y="1720" as="sourcePoint" />
            <mxPoint x="960" y="1720" as="targetPoint" />
          </mxGeometry>
        </mxCell>
        <mxCell id="IVkHDWazPN6k4As9Pz_p-85" value="" style="endArrow=classic;html=1;rounded=0;" edge="1" parent="1">
          <mxGeometry width="50" height="50" relative="1" as="geometry">
            <mxPoint x="960" y="1720" as="sourcePoint" />
            <mxPoint x="960" y="220" as="targetPoint" />
          </mxGeometry>
        </mxCell>
        <mxCell id="IVkHDWazPN6k4As9Pz_p-86" value="" style="endArrow=classic;html=1;rounded=0;entryX=1;entryY=0.5;entryDx=0;entryDy=0;" edge="1" parent="1">
          <mxGeometry width="50" height="50" relative="1" as="geometry">
            <mxPoint x="590" y="219.41" as="sourcePoint" />
            <mxPoint x="450" y="219.41" as="targetPoint" />
          </mxGeometry>
        </mxCell>
        <mxCell id="IVkHDWazPN6k4As9Pz_p-87" value="contador + 1" style="rounded=0;whiteSpace=wrap;html=1;" vertex="1" parent="1">
          <mxGeometry x="592.5" y="190" width="120" height="60" as="geometry" />
        </mxCell>
        <mxCell id="IVkHDWazPN6k4As9Pz_p-88" value="" style="endArrow=none;html=1;rounded=0;exitX=1;exitY=0.5;exitDx=0;exitDy=0;" edge="1" parent="1" source="IVkHDWazPN6k4As9Pz_p-87">
          <mxGeometry width="50" height="50" relative="1" as="geometry">
            <mxPoint x="610" y="240" as="sourcePoint" />
            <mxPoint x="960" y="220" as="targetPoint" />
          </mxGeometry>
        </mxCell>
        <mxCell id="IVkHDWazPN6k4As9Pz_p-89" value="" style="endArrow=none;html=1;rounded=0;" edge="1" parent="1">
          <mxGeometry width="50" height="50" relative="1" as="geometry">
            <mxPoint x="640" y="1880" as="sourcePoint" />
            <mxPoint x="970" y="1880" as="targetPoint" />
          </mxGeometry>
        </mxCell>
        <mxCell id="IVkHDWazPN6k4As9Pz_p-90" value="" style="endArrow=none;html=1;rounded=0;" edge="1" parent="1">
          <mxGeometry width="50" height="50" relative="1" as="geometry">
            <mxPoint x="640" y="2040" as="sourcePoint" />
            <mxPoint x="970" y="2040" as="targetPoint" />
          </mxGeometry>
        </mxCell>
        <mxCell id="IVkHDWazPN6k4As9Pz_p-91" value="" style="endArrow=none;html=1;rounded=0;" edge="1" parent="1">
          <mxGeometry width="50" height="50" relative="1" as="geometry">
            <mxPoint x="640" y="2200" as="sourcePoint" />
            <mxPoint x="960" y="2200" as="targetPoint" />
          </mxGeometry>
        </mxCell>
        <mxCell id="IVkHDWazPN6k4As9Pz_p-92" value="" style="endArrow=classic;html=1;rounded=0;" edge="1" parent="1">
          <mxGeometry width="50" height="50" relative="1" as="geometry">
            <mxPoint x="960" y="2280" as="sourcePoint" />
            <mxPoint x="960" y="1720" as="targetPoint" />
          </mxGeometry>
        </mxCell>
        <mxCell id="IVkHDWazPN6k4As9Pz_p-93" value="SI" style="text;html=1;align=center;verticalAlign=middle;whiteSpace=wrap;rounded=0;" vertex="1" parent="1">
          <mxGeometry x="660" y="1840" width="60" height="30" as="geometry" />
        </mxCell>
        <mxCell id="IVkHDWazPN6k4As9Pz_p-94" value="SI" style="text;html=1;align=center;verticalAlign=middle;whiteSpace=wrap;rounded=0;" vertex="1" parent="1">
          <mxGeometry x="670" y="2000" width="60" height="30" as="geometry" />
        </mxCell>
        <mxCell id="IVkHDWazPN6k4As9Pz_p-95" value="SI" style="text;html=1;align=center;verticalAlign=middle;whiteSpace=wrap;rounded=0;" vertex="1" parent="1">
          <mxGeometry x="670" y="2160" width="60" height="30" as="geometry" />
        </mxCell>
        <mxCell id="IVkHDWazPN6k4As9Pz_p-96" value="Else" style="rhombus;whiteSpace=wrap;html=1;" vertex="1" parent="1">
          <mxGeometry x="326.25" y="2240" width="162.5" height="80" as="geometry" />
        </mxCell>
        <mxCell id="IVkHDWazPN6k4As9Pz_p-97" value="" style="endArrow=none;html=1;rounded=0;" edge="1" parent="1">
          <mxGeometry width="50" height="50" relative="1" as="geometry">
            <mxPoint x="490" y="2280" as="sourcePoint" />
            <mxPoint x="640" y="2280" as="targetPoint" />
          </mxGeometry>
        </mxCell>
        <mxCell id="IVkHDWazPN6k4As9Pz_p-98" value="Ingreso un caracter desconocido" style="shape=parallelogram;perimeter=parallelogramPerimeter;whiteSpace=wrap;html=1;fixedSize=1;" vertex="1" parent="1">
          <mxGeometry x="630" y="2250" width="160" height="60" as="geometry" />
        </mxCell>
        <mxCell id="IVkHDWazPN6k4As9Pz_p-99" value="" style="endArrow=classic;html=1;rounded=0;exitX=1;exitY=0.5;exitDx=0;exitDy=0;" edge="1" parent="1" source="IVkHDWazPN6k4As9Pz_p-98">
          <mxGeometry width="50" height="50" relative="1" as="geometry">
            <mxPoint x="950" y="2260" as="sourcePoint" />
            <mxPoint x="960" y="2280" as="targetPoint" />
          </mxGeometry>
        </mxCell>
        <mxCell id="IVkHDWazPN6k4As9Pz_p-100" value="" style="endArrow=classic;html=1;rounded=0;exitX=1;exitY=0.5;exitDx=0;exitDy=0;" edge="1" parent="1" source="IVkHDWazPN6k4As9Pz_p-46">
          <mxGeometry width="50" height="50" relative="1" as="geometry">
            <mxPoint x="630" y="1340" as="sourcePoint" />
            <mxPoint x="600" y="1440" as="targetPoint" />
          </mxGeometry>
        </mxCell>
        <mxCell id="IVkHDWazPN6k4As9Pz_p-101" value="Devuelve&amp;nbsp;&lt;div&gt;auxiliar&lt;/div&gt;" style="shape=parallelogram;perimeter=parallelogramPerimeter;whiteSpace=wrap;html=1;fixedSize=1;" vertex="1" parent="1">
          <mxGeometry x="587.5" y="1410" width="120" height="60" as="geometry" />
        </mxCell>
        <mxCell id="IVkHDWazPN6k4As9Pz_p-102" value="" style="endArrow=classic;html=1;rounded=0;exitX=1;exitY=0.5;exitDx=0;exitDy=0;" edge="1" parent="1" source="IVkHDWazPN6k4As9Pz_p-101">
          <mxGeometry width="50" height="50" relative="1" as="geometry">
            <mxPoint x="630" y="1330" as="sourcePoint" />
            <mxPoint x="760" y="1440" as="targetPoint" />
          </mxGeometry>
        </mxCell>
        <mxCell id="IVkHDWazPN6k4As9Pz_p-103" value="END" style="ellipse;whiteSpace=wrap;html=1;" vertex="1" parent="1">
          <mxGeometry x="760" y="1400" width="120" height="80" as="geometry" />
        </mxCell>
        <mxCell id="IVkHDWazPN6k4As9Pz_p-104" value="" style="endArrow=classic;html=1;rounded=0;exitX=0.5;exitY=1;exitDx=0;exitDy=0;" edge="1" parent="1" source="IVkHDWazPN6k4As9Pz_p-96">
          <mxGeometry width="50" height="50" relative="1" as="geometry">
            <mxPoint x="630" y="2380" as="sourcePoint" />
            <mxPoint x="408" y="2390" as="targetPoint" />
          </mxGeometry>
        </mxCell>
        <mxCell id="IVkHDWazPN6k4As9Pz_p-105" value="Acaba bucle" style="rounded=0;whiteSpace=wrap;html=1;" vertex="1" parent="1">
          <mxGeometry x="347.5" y="2390" width="120" height="60" as="geometry" />
        </mxCell>
        <mxCell id="IVkHDWazPN6k4As9Pz_p-106" value="SI" style="text;html=1;align=center;verticalAlign=middle;whiteSpace=wrap;rounded=0;" vertex="1" parent="1">
          <mxGeometry x="500" y="1410" width="60" height="30" as="geometry" />
        </mxCell>
        <mxCell id="IVkHDWazPN6k4As9Pz_p-107" value="" style="endArrow=classic;html=1;rounded=0;exitX=0.5;exitY=1;exitDx=0;exitDy=0;" edge="1" parent="1" source="IVkHDWazPN6k4As9Pz_p-105">
          <mxGeometry width="50" height="50" relative="1" as="geometry">
            <mxPoint x="630" y="2560" as="sourcePoint" />
            <mxPoint x="408" y="2520" as="targetPoint" />
          </mxGeometry>
        </mxCell>
        <mxCell id="IVkHDWazPN6k4As9Pz_p-108" value="Devuelve&lt;div&gt;fecha con&lt;/div&gt;&lt;div&gt;el nuevo formato&lt;/div&gt;" style="shape=parallelogram;perimeter=parallelogramPerimeter;whiteSpace=wrap;html=1;fixedSize=1;" vertex="1" parent="1">
          <mxGeometry x="347.5" y="2520" width="120" height="60" as="geometry" />
        </mxCell>
        <mxCell id="IVkHDWazPN6k4As9Pz_p-109" value="" style="endArrow=classic;html=1;rounded=0;exitX=0.5;exitY=1;exitDx=0;exitDy=0;" edge="1" parent="1" source="IVkHDWazPN6k4As9Pz_p-108">
          <mxGeometry width="50" height="50" relative="1" as="geometry">
            <mxPoint x="630" y="2550" as="sourcePoint" />
            <mxPoint x="408" y="2630" as="targetPoint" />
          </mxGeometry>
        </mxCell>
        <mxCell id="IVkHDWazPN6k4As9Pz_p-110" value="END" style="ellipse;whiteSpace=wrap;html=1;" vertex="1" parent="1">
          <mxGeometry x="347.5" y="2630" width="120" height="80" as="geometry" />
        </mxCell>
      </root>
    </mxGraphModel>
  </diagram>
</mxfile>
